Radio-Canada-Bold-slant-14.ufo
<glyph name="exclam" format="1">
  <advance width="358"/>
  <unicode hex="0021"/>
  <outline>
    <contour>
      <point x="226.89720149266986" y="525.0" type="line"/>
      <point x="186.82528073922697" y="260.0" type="line"/>
      <point x="300.82528073922697" y="260.0" type="line"/>
      <point x="392.89720149266986" y="525.0" type="line"/>
      <point x="434.03632196179467" y="690.0" type="line"/>
      <point x="268.03632196179467" y="690.0" type="line"/>
    </contour>
    <component base="period" xOffset="40"/>
  </outline>
</glyph>
<glyph name="numbersign" format="1">
  <advance width="807"/>
  <unicode hex="0023"/>
  <outline>
    <contour>
      <point x="92.39920042647711" y="150.0" type="line"/>
      <point x="726.3992004264771" y="150.0" type="line"/>
      <point x="759.8091528074633" y="284.0" type="line"/>
      <point x="125.80915280746332" y="284.0" type="line"/>
    </contour>
    <contour>
      <point x="111.0" y="0.0" type="line"/>
      <point x="253.0" y="0.0" type="line"/>
      <point x="593.0363219617947" y="690.0" type="line"/>
      <point x="451.03632196179467" y="690.0" type="line"/>
    </contour>
    <contour>
      <point x="219.22716915433136" y="406.0" type="line"/>
      <point x="853.2271691543314" y="406.0" type="line"/>
      <point x="886.6371215353176" y="540.0" type="line"/>
      <point x="252.6371215353176" y="540.0" type="line"/>
    </contour>
    <contour>
      <point x="386.0" y="0.0" type="line"/>
      <point x="528.0" y="0.0" type="line"/>
      <point x="868.0363219617947" y="690.0" type="line"/>
      <point x="726.0363219617947" y="690.0" type="line"/>
    </contour>
  </outline>
</glyph>
<glyph name="quotesingle" format="1">
  <advance width="272"/>
  <unicode hex="0027"/>
  <outline>
    <contour>
      <point x="229.51616204709012" y="720.0" type="line"/>
      <point x="178.49800106619278" y="375.0" type="line"/>
      <point x="280.4980010661928" y="375.0" type="line"/>
      <point x="401.5161620470901" y="720.0" type="line"/>
    </contour>
  </outline>
</glyph>
<glyph name="parenleft" format="1">
  <advance width="300"/>
  <unicode hex="0028"/>
  <outline>
    <contour>
      <point x="131.81990476197242" y="268.0" type="curve" smooth="yes"/>
      <point x="75.47177611941359" y="42.0"/>
      <point x="114.5766076758774" y="-114.0"/>
      <point x="214.17203127214574" y="-256.0" type="curve"/>
      <point x="301.38103944557975" y="-195.0" type="line"/>
      <point x="238.28964783225234" y="-59.0"/>
      <point x="225.694224235984" y="83.0"/>
      <point x="271.81990476197245" y="268.0" type="curve" smooth="yes"/>
      <point x="317.94558528796085" y="453.0"/>
      <point x="401.1008336888493" y="594.0"/>
      <point x="532.009442075522" y="730.0" type="curve"/>
      <point x="475.21845024895595" y="791.0" type="line"/>
      <point x="304.8138738452243" y="649.0"/>
      <point x="188.1680334045313" y="494.0"/>
    </contour>
  </outline>
</glyph>
<glyph name="asterisk" format="1">
  <advance width="619"/>
  <unicode hex="002A"/>
  <outline>
    <contour>
      <point x="175.92408137894265" y="485.0" type="line"/>
      <point x="340.1976012794313" y="450.0" type="line"/>
      <point x="189.28361691550418" y="322.0" type="line"/>
      <point x="282.340064676677" y="238.0" type="line"/>
      <point x="407.98590511737" y="393.0" type="line"/>
      <point x="455.340064676677" y="238.0" type="line"/>
      <point x="591.2836169155041" y="322.0" type="line"/>
      <point x="504.1976012794313" y="450.0" type="line"/>
      <point x="684.9240813789427" y="485.0" type="line"/>
      <point x="675.583361762772" y="620.0" type="line"/>
      <point x="496.13308955237665" y="546.0" type="line"/>
      <point x="559.5161620470901" y="720.0" type="line"/>
      <point x="418.5161620470901" y="720.0" type="line"/>
      <point x="396.13308955237665" y="546.0" type="line"/>
      <point x="253.58336176277203" y="620.0" type="line"/>
    </contour>
  </outline>
</glyph>
<glyph name="plus" format="1">
  <advance width="660"/>
  <unicode hex="002B"/>
  <outline>
    <contour>
      <point x="147.6001446340293" y="223.0" type="line"/>
      <point x="623.6001446340293" y="223.0" type="line"/>
      <point x="657.0100970150155" y="357.0" type="line"/>
      <point x="181.0100970150155" y="357.0" type="line"/>
    </contour>
    <contour>
      <point x="273.7130401563749" y="55.0" type="line"/>
      <point x="413.7130401563749" y="55.0" type="line"/>
      <point x="530.8972014926699" y="525.0" type="line"/>
      <point x="390.89720149266986" y="525.0" type="line"/>
    </contour>
  </outline>
</glyph>
<glyph name="comma" format="1">
  <advance width="278"/>
  <unicode hex="002C"/>
  <outline>
    <contour>
      <point x="13.874319474011571" y="-185.0" type="line"/>
      <point x="101.87431947401157" y="-185.0" type="line"/>
      <point x="188.78292786068414" y="-49.0" type="line" smooth="yes"/>
      <point x="223.2466400142159" y="5.0"/>
      <point x="241.9758081023545" y="36.0"/>
      <point x="252.1982562189249" y="77.0" type="curve" smooth="yes"/>
      <point x="266.16062437814304" y="133.0"/>
      <point x="236.88441648902707" y="172.0"/>
      <point x="181.88441648902707" y="172.0" type="curve" smooth="yes"/>
      <point x="126.88441648902707" y="172.0"/>
      <point x="78.16062437814304" y="133.0"/>
      <point x="64.94624022745445" y="80.0" type="curve" smooth="yes"/>
      <point x="53.47715209666814" y="34.0"/>
      <point x="72.99731201137273" y="4.0"/>
      <point x="104.25470398009773" y="-7.0" type="curve"/>
    </contour>
  </outline>
</glyph>
<glyph name="hyphen" format="1">
  <advance width="396"/>
  <unicode hex="002D"/>
  <outline>
    <contour>
      <point x="109.10417661697022" y="217.0" type="line"/>
      <point x="395.1041766169702" y="217.0" type="line"/>
      <point x="425.2728649609951" y="338.0" type="line"/>
      <point x="139.2728649609951" y="338.0" type="line"/>
    </contour>
  </outline>
</glyph>
<glyph name="slash" format="1">
  <advance width="394"/>
  <unicode hex="002F"/>
  <outline>
    <contour>
      <point x="-7.479840085295422" y="-30.0" type="line"/>
      <point x="139.52015991470458" y="-30.0" type="line"/>
      <point x="573.5161620470901" y="720.0" type="line"/>
      <point x="426.5161620470901" y="720.0" type="line"/>
    </contour>
  </outline>
</glyph>
<glyph name="zero" format="1">
  <advance width="660"/>
  <unicode hex="0030"/>
  <outline>
    <contour>
      <point x="138.01816098089733" y="345.0" type="curve" smooth="yes"/>
      <point x="78.92742430706352" y="108.0"/>
      <point x="175.00806396588183" y="-12.0"/>
      <point x="327.00806396588183" y="-12.0" type="curve" smooth="yes"/>
      <point x="479.00806396588183" y="-12.0"/>
      <point x="634.9274243070636" y="108.0"/>
      <point x="694.0181609808974" y="345.0" type="curve" smooth="yes"/>
      <point x="753.1088976547312" y="582.0"/>
      <point x="657.0282579959129" y="702.0"/>
      <point x="505.0282579959129" y="702.0" type="curve" smooth="yes"/>
      <point x="353.0282579959129" y="702.0"/>
      <point x="197.10889765473118" y="582.0"/>
    </contour>
    <contour>
      <point x="302.01816098089733" y="345.0" type="curve" smooth="yes"/>
      <point x="339.8785244803024" y="496.8496240601503"/>
      <point x="404.37435358933806" y="559.0"/>
      <point x="469.37435358933806" y="559.0" type="curve" smooth="yes"/>
      <point x="534.374353589338" y="559.0"/>
      <point x="567.8785244803024" y="496.8496240601503"/>
      <point x="530.0181609808974" y="345.0" type="curve" smooth="yes"/>
      <point x="492.15779748149225" y="193.15037593984965"/>
      <point x="427.66196837245667" y="131.0"/>
      <point x="362.66196837245667" y="131.0" type="curve" smooth="yes"/>
      <point x="297.66196837245667" y="131.0"/>
      <point x="264.15779748149225" y="193.15037593984965"/>
    </contour>
  </outline>
</glyph>
<glyph name="one" format="1">
  <advance width="660"/>
  <unicode hex="0031"/>
  <outline>
    <contour>
      <point x="255.34478571443796" y="603.0" type="line"/>
      <point x="274.17340938178586" y="486.0" type="line"/>
      <point x="492.3689776120834" y="567.0" type="line"/>
      <point x="489.03632196179467" y="690.0" type="line"/>
    </contour>
    <contour>
      <point x="117.0" y="0.0" type="line"/>
      <point x="563.0" y="0.0" type="line"/>
      <point x="592.9193603411817" y="120.0" type="line"/>
      <point x="146.9193603411817" y="120.0" type="line"/>
    </contour>
    <contour>
      <point x="264.0" y="0.0" type="line"/>
      <point x="424.0" y="0.0" type="line"/>
      <point x="596.0363219617947" y="690.0" type="line"/>
      <point x="489.03632196179467" y="690.0" type="line"/>
      <point x="422.8219378111061" y="637.0" type="line"/>
    </contour>
  </outline>
</glyph>
<glyph name="three" format="1">
  <advance width="660"/>
  <unicode hex="0033"/>
  <outline>
    <contour>
      <point x="78.94355223882718" y="84.0" type="line"/>
      <point x="130.73454406539315" y="23.0"/>
      <point x="204.00806396588183" y="-12.0"/>
      <point x="310.00806396588183" y="-12.0" type="curve"/>
      <point x="451.00806396588183" y="-12.0"/>
      <point x="593.4556481876499" y="66.0"/>
      <point x="630.6055206112839" y="215.0" type="curve"/>
      <point x="664.2648009951132" y="350.0"/>
      <point x="573.967089196979" y="421.0"/>
      <point x="427.9670891969791" y="421.0" type="curve"/>
      <point x="358.9670891969791" y="421.0" type="line"/>
      <point x="298.2379211088405" y="390.0" type="line"/>
      <point x="276.7957128643269" y="304.0" type="line"/>
      <point x="365.7957128643269" y="304.0" type="line" smooth="yes"/>
      <point x="454.7957128643269" y="304.0"/>
      <point x="484.0719207534429" y="265.0"/>
      <point x="471.60552061128385" y="215.0" type="curve"/>
      <point x="457.64315245206575" y="159.0"/>
      <point x="399.9139843639271" y="128.0"/>
      <point x="325.9139843639271" y="128.0" type="curve"/>
      <point x="263.9139843639271" y="128.0"/>
      <point x="220.39651243784982" y="154.0"/>
      <point x="190.36694456294978" y="198.0" type="curve"/>
    </contour>
    <contour>
      <point x="222.1304015637494" y="550.0" type="line"/>
      <point x="640.1304015637494" y="550.0" type="line"/>
      <point x="697.8568816632608" y="585.0" type="line"/>
      <point x="724.0363219617947" y="690.0" type="line"/>
      <point x="257.03632196179467" y="690.0" type="line"/>
    </contour>
    <contour>
      <point x="298.2379211088405" y="390.0" type="line"/>
      <point x="453.2379211088405" y="390.0" type="line"/>
      <point x="697.8568816632608" y="585.0" type="line"/>
      <point x="665.0363219617947" y="690.0" type="line"/>
    </contour>
  </outline>
</glyph>
<glyph name="four" format="1">
  <advance width="660"/>
  <unicode hex="0034"/>
  <outline>
    <contour>
      <point x="119.10148862834293" y="221.0" type="line"/>
      <point x="171.92204832980897" y="116.0" type="line"/>
      <point x="620.0363219617947" y="690.0" type="line"/>
      <point x="490.03632196179467" y="690.0" type="line"/>
    </contour>
    <contour>
      <point x="92.92204832980896" y="116.0" type="line"/>
      <point x="640.922048329809" y="116.0" type="line"/>
      <point x="675.8279687278542" y="256.0" type="line"/>
      <point x="173.82796872785426" y="256.0" type="line"/>
      <point x="119.10148862834293" y="221.0" type="line"/>
    </contour>
    <contour>
      <point x="361.0" y="0.0" type="line"/>
      <point x="521.0" y="0.0" type="line"/>
      <point x="693.0363219617947" y="690.0" type="line"/>
      <point x="533.0363219617947" y="690.0" type="line"/>
    </contour>
  </outline>
</glyph>
<glyph name="five" format="1">
  <advance width="660"/>
  <unicode hex="0035"/>
  <outline>
    <contour>
      <point x="88.94355223882718" y="84.0" type="line"/>
      <point x="140.73454406539315" y="23.0"/>
      <point x="214.00806396588183" y="-12.0"/>
      <point x="320.00806396588183" y="-12.0" type="curve"/>
      <point x="461.00806396588183" y="-12.0"/>
      <point x="603.4556481876499" y="66.0"/>
      <point x="640.6055206112839" y="215.0" type="curve"/>
      <point x="674.2648009951132" y="350.0"/>
      <point x="587.4576812367836" y="435.0"/>
      <point x="469.4576812367836" y="435.0" type="curve"/>
      <point x="388.4576812367836" y="435.0"/>
      <point x="307.2379211088405" y="390.0"/>
      <point x="264.2674889837405" y="346.0" type="curve"/>
      <point x="238.32393674491334" y="262.0" type="line"/>
      <point x="284.5517608387383" y="295.0"/>
      <point x="332.53832089560194" y="315.0"/>
      <point x="382.53832089560194" y="315.0" type="curve"/>
      <point x="465.53832089560194" y="315.0"/>
      <point x="495.81721677334514" y="272.0"/>
      <point x="482.8521606254998" y="220.0" type="curve"/>
      <point x="468.14180845775206" y="161.0"/>
      <point x="409.9139843639271" y="128.0"/>
      <point x="335.9139843639271" y="128.0" type="curve"/>
      <point x="273.9139843639271" y="128.0"/>
      <point x="230.39651243784982" y="154.0"/>
      <point x="200.36694456294978" y="198.0" type="curve"/>
    </contour>
    <contour>
      <point x="182.54369687285646" y="307.0" type="line"/>
      <point x="238.32393674491334" y="262.0" type="line"/>
      <point x="325.7742089553087" y="336.0" type="line"/>
      <point x="434.03632196179467" y="690.0" type="line"/>
      <point x="300.03632196179467" y="690.0" type="line"/>
    </contour>
    <contour>
      <point x="300.03632196179467" y="690.0" type="line"/>
      <point x="328.1304015637494" y="550.0" type="line"/>
      <point x="677.1304015637494" y="550.0" type="line"/>
      <point x="712.0363219617947" y="690.0" type="line"/>
    </contour>
  </outline>
</glyph>
<glyph name="seven" format="1">
  <advance width="660"/>
  <unicode hex="0037"/>
  <outline>
    <contour>
      <point x="204.6371215353176" y="540.0" type="line"/>
      <point x="644.6371215353176" y="540.0" type="line"/>
      <point x="704.8568816632608" y="585.0" type="line"/>
      <point x="731.0363219617947" y="690.0" type="line"/>
      <point x="242.0363219617947" y="690.0" type="line"/>
    </contour>
    <contour>
      <point x="156.0" y="0.0" type="line"/>
      <point x="332.0" y="0.0" type="line"/>
      <point x="704.8568816632608" y="585.0" type="line"/>
      <point x="616.0363219617947" y="690.0" type="line"/>
    </contour>
  </outline>
</glyph>
<glyph name="eight" format="1">
  <advance width="660"/>
  <unicode hex="0038"/>
  <outline>
    <contour>
      <point x="112.13374449187026" y="173.0" type="curve" smooth="yes"/>
      <point x="134.061058307133" y="260.945652173913"/>
      <point x="205.12602099611638" y="325.3786982248521"/>
      <point x="308.5168169865837" y="347.0" type="curve"/>
      <point x="389.0477288557974" y="301.0" type="line"/>
      <point x="325.2311352628415" y="287.3521126760563"/>
      <point x="278.58670469089293" y="243.0"/>
      <point x="267.1176165601066" y="197.0" type="curve"/>
      <point x="255.3992004264771" y="150.0"/>
      <point x="287.17137633265213" y="117.0"/>
      <point x="356.17137633265213" y="117.0" type="curve" smooth="yes"/>
      <point x="427.17137633265213" y="117.0"/>
      <point x="470.39920042647714" y="150.0"/>
      <point x="479.3750085288316" y="186.0" type="curve" smooth="yes"/>
      <point x="488.35081663118615" y="222.0"/>
      <point x="476.3266247335406" y="258.0"/>
      <point x="390.3051208245224" y="290.0" type="curve" smooth="yes"/>
      <point x="234.5168169865837" y="347.0"/>
      <point x="196.47112117991998" y="415.0"/>
      <point x="220.6559374557085" y="512.0" type="curve" smooth="yes"/>
      <point x="246.33672174855613" y="615.0"/>
      <point x="362.0282579959129" y="702.0"/>
      <point x="504.0282579959129" y="702.0" type="curve" smooth="yes"/>
      <point x="644.0282579959129" y="702.0"/>
      <point x="719.5806737741448" y="624.0"/>
      <point x="694.1492174841403" y="522.0" type="curve" smooth="yes"/>
      <point x="674.4296390774524" y="442.9090909090909"/>
      <point x="609.3609743402196" y="386.48275862068965"/>
      <point x="505.75001705766323" y="372.0" type="curve"/>
      <point x="427.97246517423366" y="413.0" type="line"/>
      <point x="490.71238521688133" y="428.0"/>
      <point x="535.6855053306085" y="468.0"/>
      <point x="545.1599694386495" y="506.0" type="curve"/>
      <point x="554.8837615495335" y="545.0"/>
      <point x="530.6129296376721" y="576.0"/>
      <point x="471.6129296376721" y="576.0" type="curve"/>
      <point x="412.6129296376721" y="576.0"/>
      <point x="378.1357775410039" y="542.0"/>
      <point x="369.907953447179" y="509.0" type="curve"/>
      <point x="362.1787853590404" y="478.0"/>
      <point x="381.4469292822745" y="451.0"/>
      <point x="461.7150732055086" y="424.0" type="curve" smooth="yes"/>
      <point x="625.5033770434474" y="367.0"/>
      <point x="661.0611687989337" y="281.0"/>
      <point x="636.8763525231452" y="184.0" type="curve" smooth="yes"/>
      <point x="610.4475842217681" y="78.0"/>
      <point x="496.00806396588183" y="-12.0"/>
      <point x="325.00806396588183" y="-12.0" type="curve" smooth="yes"/>
      <point x="165.00806396588183" y="-12.0"/>
      <point x="84.70766417912039" y="63.0"/>
    </contour>
  </outline>
</glyph>
<glyph name="less" format="1">
  <advance width="660"/>
  <unicode hex="003C"/>
  <outline>
    <contour>
      <point x="154.59745664540202" y="227.0" type="line"/>
      <point x="175.79033688707239" y="312.0" type="line"/>
      <point x="286.03966488991557" y="313.0" type="line"/>
      <point x="587.1229925373611" y="189.0" type="line"/>
      <point x="549.723792110884" y="39.0" type="line"/>
    </contour>
    <contour>
      <point x="161.82796872785426" y="256.0" type="line"/>
      <point x="185.01547299227008" y="349.0" type="line"/>
      <point x="673.8891375267881" y="537.0" type="line"/>
      <point x="635.4926250889382" y="383.0" type="line"/>
      <point x="272.0772967306974" y="257.0" type="line"/>
    </contour>
  </outline>
</glyph>
<glyph name="question" format="1">
  <advance width="518"/>
  <unicode hex="003F"/>
  <outline>
    <contour>
      <point x="158.35016169169253" y="595.0" type="curve"/>
      <point x="218.67475337609946" y="484.0" type="line"/>
      <point x="273.14115351825853" y="534.0"/>
      <point x="316.3770415779653" y="555.0"/>
      <point x="363.3770415779653" y="555.0" type="curve"/>
      <point x="411.3770415779653" y="555.0"/>
      <point x="430.39585749835624" y="527.0"/>
      <point x="422.9160174130608" y="497.0" type="curve"/>
      <point x="417.18147334766763" y="474.0"/>
      <point x="396.70163326237224" y="444.0"/>
      <point x="326.2298571429586" y="402.0" type="curve" smooth="yes"/>
      <point x="287.49531307756547" y="379.0"/>
      <point x="264.5168169865837" y="347.0"/>
      <point x="256.7984008529542" y="300.0" type="curve" smooth="yes"/>
      <point x="248.08536069657927" y="245.0" type="line"/>
      <point x="367.0853606965793" y="245.0" type="line"/>
      <point x="375.81721677334514" y="272.0" type="line" smooth="yes"/>
      <point x="381.5544488273656" y="291.0"/>
      <point x="393.79302487569964" y="308.0"/>
      <point x="413.5356329069746" y="319.0" type="curve" smooth="yes"/>
      <point x="534.2379211088405" y="390.0"/>
      <point x="573.4523052595291" y="443.0"/>
      <point x="590.9052654585518" y="513.0" type="curve"/>
      <point x="618.830001776988" y="625.0"/>
      <point x="549.0282579959129" y="702.0"/>
      <point x="420.0282579959129" y="702.0" type="curve"/>
      <point x="329.0282579959129" y="702.0"/>
      <point x="230.55916986512653" y="656.0"/>
    </contour>
    <component base="period" xOffset="108"/>
  </outline>
</glyph>
<glyph name="D" format="1">
  <advance width="724"/>
  <unicode hex="0044"/>
  <outline>
    <contour>
      <point x="85.0" y="0.0" type="line"/>
      <point x="245.0" y="0.0" type="line"/>
      <point x="417.03632196179467" y="690.0" type="line"/>
      <point x="257.03632196179467" y="690.0" type="line"/>
    </contour>
    <contour>
      <point x="159.0" y="0.0" type="line"/>
      <point x="347.0" y="0.0" type="line" smooth="yes"/>
      <point x="534.0" y="0.0"/>
      <point x="710.9139843639272" y="128.0"/>
      <point x="765.0181609808974" y="345.0" type="curve" smooth="yes"/>
      <point x="819.1223375978675" y="562.0"/>
      <point x="706.0363219617947" y="690.0"/>
      <point x="519.0363219617947" y="690.0" type="curve" smooth="yes"/>
      <point x="331.03632196179467" y="690.0" type="line"/>
      <point x="296.1304015637494" y="550.0" type="line"/>
      <point x="469.1304015637494" y="550.0" type="line" smooth="yes"/>
      <point x="579.1304015637494" y="550.0"/>
      <point x="636.1760973704131" y="482.0"/>
      <point x="602.0181609808974" y="345.0" type="curve" smooth="yes"/>
      <point x="567.8602245913816" y="208.0"/>
      <point x="476.9059203980453" y="140.0"/>
      <point x="366.9059203980453" y="140.0" type="curve" smooth="yes"/>
      <point x="193.90592039804528" y="140.0" type="line"/>
    </contour>
    <contour>
      <point x="494.03632196179467" y="690.0" type="move" name="top"/>
    </contour>
  </outline>
</glyph>
<glyph name="G" format="1">
  <advance width="703"/>
  <unicode hex="0047"/>
  <outline>
    <contour>
      <point x="131.01816098089733" y="345.0" type="curve" smooth="yes"/>
      <point x="75.41801634686804" y="122.0"/>
      <point x="201.00806396588183" y="-12.0"/>
      <point x="380.00806396588183" y="-12.0" type="curve" smooth="yes"/>
      <point x="476.00806396588183" y="-12.0"/>
      <point x="566.7372320540204" y="19.0"/>
      <point x="663.1955682302977" y="81.0" type="curve"/>
      <point x="526.149872423634" y="149.0" type="line"/>
      <point x="488.4099523809862" y="134.0"/>
      <point x="449.9139843639271" y="128.0"/>
      <point x="421.9139843639271" y="128.0" type="curve" smooth="yes"/>
      <point x="317.9139843639271" y="128.0"/>
      <point x="259.6108965885384" y="207.0"/>
      <point x="294.01816098089733" y="345.0" type="curve" smooth="yes"/>
      <point x="328.4254253732563" y="483.0"/>
      <point x="427.12771357512213" y="554.0"/>
      <point x="529.1277135751221" y="554.0" type="curve" smooth="yes"/>
      <point x="586.1277135751221" y="554.0"/>
      <point x="632.1411535182585" y="534.0"/>
      <point x="671.9133294244335" y="501.0" type="curve"/>
      <point x="781.8219378111062" y="637.0" type="line"/>
      <point x="716.7923699362061" y="681.0"/>
      <point x="649.0282579959129" y="702.0"/>
      <point x="562.0282579959129" y="702.0" type="curve" smooth="yes"/>
      <point x="379.0282579959129" y="702.0"/>
      <point x="186.61830561492664" y="568.0"/>
    </contour>
    <contour>
      <point x="421.082672707952" y="249.0" type="line"/>
      <point x="637.082672707952" y="249.0" type="line"/>
      <point x="670.243297086095" y="382.0" type="line"/>
      <point x="454.243297086095" y="382.0" type="line"/>
    </contour>
    <contour>
      <point x="506.45296019902264" y="70.0" type="line"/>
      <point x="663.1955682302977" y="81.0" type="line"/>
      <point x="738.243297086095" y="382.0" type="line"/>
      <point x="584.243297086095" y="382.0" type="line"/>
    </contour>
    <contour>
      <point x="549.0363219617947" y="690.0" type="move" name="top"/>
    </contour>
    <contour>
      <point x="377.0" y="0.0" type="move" name="bottom"/>
    </contour>
  </outline>
</glyph>
<glyph name="H" format="1">
  <advance width="754"/>
  <unicode hex="0048"/>
  <outline>
    <contour>
      <point x="85.0" y="0.0" type="line"/>
      <point x="245.0" y="0.0" type="line"/>
      <point x="417.03632196179467" y="690.0" type="line"/>
      <point x="257.03632196179467" y="690.0" type="line"/>
    </contour>
    <contour>
      <point x="228.31318479040425" y="278.0" type="line"/>
      <point x="664.3131847904042" y="278.0" type="line"/>
      <point x="699.2191051884495" y="418.0" type="line"/>
      <point x="263.21910518844953" y="418.0" type="line"/>
    </contour>
    <contour>
      <point x="509.0" y="0.0" type="line"/>
      <point x="669.0" y="0.0" type="line"/>
      <point x="841.0363219617947" y="690.0" type="line"/>
      <point x="681.0363219617947" y="690.0" type="line"/>
    </contour>
    <contour>
      <point x="549.0363219617947" y="690.0" type="move" name="top"/>
    </contour>
  </outline>
</glyph>
<glyph name="I" format="1">
  <advance width="450"/>
  <unicode hex="0049"/>
  <outline>
    <contour>
      <point x="55.0" y="0.0" type="line"/>
      <point x="395.0" y="0.0" type="line"/>
      <point x="424.9193603411817" y="120.0" type="line"/>
      <point x="84.91936034118169" y="120.0" type="line"/>
    </contour>
    <contour>
      <point x="197.116961620613" y="570.0" type="line"/>
      <point x="537.116961620613" y="570.0" type="line"/>
      <point x="567.0363219617947" y="690.0" type="line"/>
      <point x="227.0363219617947" y="690.0" type="line"/>
    </contour>
    <contour>
      <point x="145.0" y="0.0" type="line"/>
      <point x="305.0" y="0.0" type="line"/>
      <point x="477.03632196179467" y="690.0" type="line"/>
      <point x="317.03632196179467" y="690.0" type="line"/>
    </contour>
    <contour>
      <point x="397.03632196179467" y="690.0" type="move" name="top"/>
    </contour>
    <contour>
      <point x="225.0" y="0.0" type="move" name="bottom"/>
    </contour>
  </outline>
</glyph>
<glyph name="J" format="1">
  <advance width="569"/>
  <unicode hex="004A"/>
  <outline>
    <contour>
      <point x="33.45027221039537" y="74.0" type="line"/>
      <point x="73.2358880597068" y="21.0"/>
      <point x="134.00806396588183" y="-12.0"/>
      <point x="220.00806396588183" y="-12.0" type="curve"/>
      <point x="369.00806396588183" y="-12.0"/>
      <point x="513.9462402274545" y="80.0"/>
      <point x="555.0853606965793" y="245.0" type="curve" smooth="yes"/>
      <point x="666.0363219617947" y="690.0" type="line"/>
      <point x="510.03632196179467" y="690.0" type="line"/>
      <point x="404.0719207534429" y="265.0" type="line" smooth="yes"/>
      <point x="382.131056503243" y="177.0"/>
      <point x="323.66196837245667" y="131.0"/>
      <point x="250.66196837245667" y="131.0" type="curve"/>
      <point x="205.66196837245667" y="131.0"/>
      <point x="172.39651243784982" y="154.0"/>
      <point x="157.37500852883161" y="186.0" type="curve"/>
    </contour>
    <contour>
      <point x="312.116961620613" y="570.0" type="line"/>
      <point x="582.116961620613" y="570.0" type="line"/>
      <point x="612.0363219617947" y="690.0" type="line"/>
      <point x="342.03632196179467" y="690.0" type="line"/>
    </contour>
    <contour>
      <point x="504.03632196179467" y="690.0" type="move" name="top"/>
    </contour>
  </outline>
</glyph>
<glyph name="L" format="1">
  <advance width="590"/>
  <unicode hex="004C"/>
  <outline>
    <contour>
      <point x="85.0" y="0.0" type="line"/>
      <point x="245.0" y="0.0" type="line"/>
      <point x="417.03632196179467" y="690.0" type="line"/>
      <point x="257.03632196179467" y="690.0" type="line"/>
    </contour>
    <contour>
      <point x="159.0" y="0.0" type="line"/>
      <point x="555.0" y="0.0" type="line"/>
      <point x="589.9059203980453" y="140.0" type="line"/>
      <point x="193.90592039804528" y="140.0" type="line"/>
    </contour>
    <contour>
      <point x="337.03632196179467" y="690.0" type="move" name="top"/>
    </contour>
  </outline>
</glyph>
<glyph name="N" format="1">
  <advance width="759"/>
  <unicode hex="004E"/>
  <outline>
    <contour>
      <point x="85.0" y="0.0" type="line"/>
      <point x="229.0" y="0.0" type="line"/>
      <point x="401.03632196179467" y="690.0" type="line"/>
      <point x="257.03632196179467" y="690.0" type="line"/>
    </contour>
    <contour>
      <point x="313.03632196179467" y="690.0" type="line"/>
      <point x="480.0" y="0.0" type="line"/>
      <point x="629.0" y="0.0" type="line"/>
      <point x="462.03632196179467" y="690.0" type="line"/>
    </contour>
    <contour>
      <point x="530.0" y="0.0" type="line"/>
      <point x="674.0" y="0.0" type="line"/>
      <point x="846.0363219617947" y="690.0" type="line"/>
      <point x="702.0363219617947" y="690.0" type="line"/>
    </contour>
    <contour>
      <point x="569.0363219617947" y="690.0" type="move" name="top"/>
    </contour>
  </outline>
</glyph>
<glyph name="O" format="1">
  <advance width="744"/>
  <unicode hex="004F"/>
  <outline>
    <contour>
      <point x="131.01816098089733" y="345.0" type="curve" smooth="yes"/>
      <point x="75.41801634686804" y="122.0"/>
      <point x="189.00806396588183" y="-12.0"/>
      <point x="369.00806396588183" y="-12.0" type="curve" smooth="yes"/>
      <point x="549.0080639658818" y="-12.0"/>
      <point x="729.4180163468681" y="122.0"/>
      <point x="785.0181609808974" y="345.0" type="curve" smooth="yes"/>
      <point x="840.6183056149266" y="568.0"/>
      <point x="727.0282579959129" y="702.0"/>
      <point x="547.0282579959129" y="702.0" type="curve" smooth="yes"/>
      <point x="367.0282579959129" y="702.0"/>
      <point x="186.61830561492664" y="568.0"/>
    </contour>
    <contour>
      <point x="294.01816098089733" y="345.0" type="curve" smooth="yes"/>
      <point x="329.92139339031536" y="489.0"/>
      <point x="417.37435358933806" y="559.0"/>
      <point x="511.37435358933806" y="559.0" type="curve" smooth="yes"/>
      <point x="605.374353589338" y="559.0"/>
      <point x="657.9213933903154" y="489.0"/>
      <point x="622.0181609808974" y="345.0" type="curve" smooth="yes"/>
      <point x="586.1149285714794" y="201.0"/>
      <point x="498.66196837245667" y="131.0"/>
      <point x="404.66196837245667" y="131.0" type="curve" smooth="yes"/>
      <point x="310.66196837245667" y="131.0"/>
      <point x="258.1149285714793" y="201.0"/>
    </contour>
    <contour>
      <point x="544.0363219617947" y="690.0" type="move" name="top"/>
    </contour>
    <contour>
      <point x="372.0" y="0.0" type="move" name="bottom"/>
    </contour>
  </outline>
</glyph>
<glyph name="P" format="1">
  <advance width="654"/>
  <unicode hex="0050"/>
  <outline>
    <contour>
      <point x="85.0" y="0.0" type="line"/>
      <point x="245.0" y="0.0" type="line"/>
      <point x="417.03632196179467" y="690.0" type="line"/>
      <point x="257.03632196179467" y="690.0" type="line"/>
    </contour>
    <contour>
      <point x="206.37232054020433" y="190.0" type="line"/>
      <point x="384.3723205402043" y="190.0" type="line" smooth="yes"/>
      <point x="540.3723205402043" y="190.0"/>
      <point x="684.5598248046201" y="283.0"/>
      <point x="723.7043212509996" y="440.0" type="curve" smooth="yes"/>
      <point x="762.8488176973789" y="597.0"/>
      <point x="665.0363219617947" y="690.0"/>
      <point x="509.03632196179467" y="690.0" type="curve" smooth="yes"/>
      <point x="331.03632196179467" y="690.0" type="line"/>
      <point x="296.1304015637494" y="550.0" type="line"/>
      <point x="459.1304015637494" y="550.0" type="line" smooth="yes"/>
      <point x="536.1304015637494" y="550.0"/>
      <point x="579.1545934613948" y="514.0"/>
      <point x="560.7043212509996" y="440.0" type="curve" smooth="yes"/>
      <point x="542.2540490406042" y="366.0"/>
      <point x="481.2782409382496" y="330.0"/>
      <point x="404.2782409382496" y="330.0" type="curve" smooth="yes"/>
      <point x="241.27824093824964" y="330.0" type="line"/>
    </contour>
  </outline>
</glyph>
<glyph name="Q" format="1">
  <advance width="744"/>
  <unicode hex="0051"/>
  <outline>
    <contour>
      <point x="418.2439520255886" y="9.0" type="line"/>
      <point x="424.32727967303424" y="-115.0"/>
      <point x="492.1155835109729" y="-172.0"/>
      <point x="648.1155835109729" y="-172.0" type="curve"/>
      <point x="685.7641119402932" y="-21.0" type="line"/>
      <point x="599.7641119402932" y="-21.0"/>
      <point x="561.0026879886273" y="-4.0"/>
      <point x="547.4690881307863" y="46.0" type="curve"/>
    </contour>
    <component base="O"/>
  </outline>
</glyph>
<glyph name="S" format="1">
  <advance width="638"/>
  <unicode hex="0053"/>
  <outline>
    <contour>
      <point x="53.45027221039537" y="74.0" type="line"/>
      <point x="124.98656005686361" y="20.0"/>
      <point x="212.00806396588183" y="-12.0"/>
      <point x="306.00806396588183" y="-12.0" type="curve"/>
      <point x="497.00806396588183" y="-12.0"/>
      <point x="614.1928802416703" y="85.0"/>
      <point x="641.6189605544203" y="195.0" type="curve"/>
      <point x="666.8010888415815" y="296.0"/>
      <point x="618.2513610519768" y="370.0"/>
      <point x="462.21372921119496" y="426.0" type="curve" smooth="yes"/>
      <point x="375.9428972993336" y="457.0"/>
      <point x="351.1760973704131" y="482.0"/>
      <point x="358.9052654585517" y="513.0" type="curve"/>
      <point x="365.8864495381608" y="541.0"/>
      <point x="402.11964960924024" y="566.0"/>
      <point x="458.11964960924024" y="566.0" type="curve"/>
      <point x="527.1196496092402" y="566.0"/>
      <point x="587.3877935324745" y="539.0"/>
      <point x="632.6640014215903" y="500.0" type="curve"/>
      <point x="735.3286577826743" y="627.0" type="line"/>
      <point x="684.8004339020879" y="669.0"/>
      <point x="596.0282579959129" y="702.0"/>
      <point x="505.0282579959129" y="702.0" type="curve"/>
      <point x="334.0282579959129" y="702.0"/>
      <point x="222.09008173434023" y="610.0"/>
      <point x="194.66400142159034" y="500.0" type="curve"/>
      <point x="171.97515316286092" y="409.0"/>
      <point x="217.27824093824964" y="330.0"/>
      <point x="368.06385678756106" y="277.0" type="curve" smooth="yes"/>
      <point x="464.58670469089293" y="243.0"/>
      <point x="480.8575366027543" y="212.0"/>
      <point x="473.8763525231453" y="184.0" type="curve"/>
      <point x="465.89785643216345" y="152.0"/>
      <point x="422.4153283582408" y="126.0"/>
      <point x="357.4153283582408" y="126.0" type="curve"/>
      <point x="284.4153283582408" y="126.0"/>
      <point x="209.64315245206575" y="159.0"/>
      <point x="162.61089658853842" y="207.0" type="curve"/>
    </contour>
    <contour>
      <point x="502.03632196179467" y="690.0" type="move" name="top"/>
    </contour>
    <contour>
      <point x="309.0" y="0.0" type="move" name="bottom"/>
    </contour>
  </outline>
</glyph>
<glyph name="U" format="1">
  <advance width="724"/>
  <unicode hex="0055"/>
  <outline>
    <contour>
      <point x="143.5652007818747" y="275.0" type="line" smooth="yes"/>
      <point x="97.68884825872945" y="91.0"/>
      <point x="198.00806396588183" y="-12.0"/>
      <point x="359.00806396588183" y="-12.0" type="curve" smooth="yes"/>
      <point x="520.0080639658818" y="-12.0"/>
      <point x="671.6888482587294" y="91.0"/>
      <point x="717.5652007818746" y="275.0" type="curve" smooth="yes"/>
      <point x="821.0363219617947" y="690.0" type="line"/>
      <point x="665.0363219617947" y="690.0" type="line"/>
      <point x="566.5517608387383" y="295.0" type="line" smooth="yes"/>
      <point x="538.1283685146157" y="181.0"/>
      <point x="470.66196837245667" y="131.0"/>
      <point x="396.66196837245667" y="131.0" type="curve" smooth="yes"/>
      <point x="322.66196837245667" y="131.0"/>
      <point x="280.1283685146157" y="181.0"/>
      <point x="308.5517608387383" y="295.0" type="curve" smooth="yes"/>
      <point x="407.03632196179467" y="690.0" type="line"/>
      <point x="247.0363219617947" y="690.0" type="line"/>
    </contour>
    <contour>
      <point x="536.0363219617947" y="690.0" type="move" name="top"/>
    </contour>
    <contour>
      <point x="362.0" y="0.0" type="move" name="bottom"/>
    </contour>
  </outline>
</glyph>
<glyph name="V" format="1">
  <advance width="656"/>
  <unicode hex="0056"/>
  <outline>
    <contour>
      <point x="172.0363219617947" y="690.0" type="line"/>
      <point x="261.0" y="0.0" type="line"/>
      <point x="343.0" y="0.0" type="line"/>
      <point x="385.8951684435362" y="156.0" type="line"/>
      <point x="346.03632196179467" y="690.0" type="line"/>
    </contour>
    <contour>
      <point x="351.8951684435362" y="156.0" type="line"/>
      <point x="321.0" y="0.0" type="line"/>
      <point x="395.0" y="0.0" type="line"/>
      <point x="828.0363219617947" y="690.0" type="line"/>
      <point x="658.0363219617947" y="690.0" type="line"/>
    </contour>
  </outline>
</glyph>
<glyph name="W" format="1">
  <advance width="956"/>
  <unicode hex="0057"/>
  <outline>
    <contour>
      <point x="172.0363219617947" y="690.0" type="line"/>
      <point x="215.0" y="0.0" type="line"/>
      <point x="297.0" y="0.0" type="line"/>
      <point x="342.6377764748112" y="167.0" type="line"/>
      <point x="343.03632196179467" y="690.0" type="line"/>
    </contour>
    <contour>
      <point x="308.6377764748112" y="167.0" type="line"/>
      <point x="275.0" y="0.0" type="line"/>
      <point x="349.0" y="0.0" type="line"/>
      <point x="649.631745558063" y="548.0" type="line"/>
      <point x="685.0363219617947" y="690.0" type="line"/>
      <point x="586.0363219617947" y="690.0" type="line"/>
    </contour>
    <contour>
      <point x="579.631745558063" y="548.0" type="line"/>
      <point x="606.0" y="0.0" type="line"/>
      <point x="688.0" y="0.0" type="line"/>
      <point x="733.6377764748112" y="167.0" type="line"/>
      <point x="718.0363219617947" y="690.0" type="line"/>
      <point x="615.0363219617947" y="690.0" type="line"/>
    </contour>
    <contour>
      <point x="699.6377764748112" y="167.0" type="line"/>
      <point x="666.0" y="0.0" type="line"/>
      <point x="740.0" y="0.0" type="line"/>
      <point x="1128.0363219617948" y="690.0" type="line"/>
      <point x="961.0363219617947" y="690.0" type="line"/>
    </contour>
    <contour>
      <point x="650.0363219617947" y="690.0" type="move" name="top"/>
    </contour>
  </outline>
</glyph>
<glyph name="Y" format="1">
  <advance width="656"/>
  <unicode hex="0059"/>
  <outline>
    <contour>
      <point x="172.0363219617947" y="690.0" type="line"/>
      <point x="325.82528073922697" y="260.0" type="line"/>
      <point x="407.82528073922697" y="260.0" type="line"/>
      <point x="445.98321712874275" y="397.0" type="line"/>
      <point x="356.03632196179467" y="690.0" type="line"/>
    </contour>
    <contour>
      <point x="248.0" y="0.0" type="line"/>
      <point x="408.0" y="0.0" type="line"/>
      <point x="480.3051208245224" y="290.0" type="line"/>
      <point x="320.3051208245224" y="290.0" type="line"/>
    </contour>
    <contour>
      <point x="411.98321712874275" y="397.0" type="line"/>
      <point x="385.82528073922697" y="260.0" type="line"/>
      <point x="459.82528073922697" y="260.0" type="line"/>
      <point x="828.0363219617947" y="690.0" type="line"/>
      <point x="648.0363219617947" y="690.0" type="line"/>
    </contour>
    <contour>
      <point x="501.03632196179467" y="690.0" type="move" name="top"/>
    </contour>
  </outline>
</glyph>
<glyph name="Z" format="1">
  <advance width="646"/>
  <unicode hex="005A"/>
  <outline>
    <contour>
      <point x="81.17944029853398" y="105.0" type="line"/>
      <point x="173.0" y="0.0" type="line"/>
      <point x="726.8568816632608" y="585.0" type="line"/>
      <point x="635.0363219617947" y="690.0" type="line"/>
    </contour>
    <contour>
      <point x="55.0" y="0.0" type="line"/>
      <point x="591.0" y="0.0" type="line"/>
      <point x="625.9059203980453" y="140.0" type="line"/>
      <point x="148.90592039804528" y="140.0" type="line"/>
      <point x="81.17944029853398" y="105.0" type="line"/>
    </contour>
    <contour>
      <point x="202.1304015637494" y="550.0" type="line"/>
      <point x="660.1304015637494" y="550.0" type="line"/>
      <point x="726.8568816632608" y="585.0" type="line"/>
      <point x="753.0363219617947" y="690.0" type="line"/>
      <point x="237.0363219617947" y="690.0" type="line"/>
    </contour>
    <contour>
      <point x="495.03632196179467" y="690.0" type="move" name="top"/>
    </contour>
  </outline>
</glyph>
<glyph name="bracketleft" format="1">
  <advance width="320"/>
  <unicode hex="005B"/>
  <outline>
    <contour>
      <point x="11.448239161261696" y="-295.0" type="line"/>
      <point x="151.4482391612617" y="-295.0" type="line"/>
      <point x="431.94224235983995" y="830.0" type="line"/>
      <point x="291.94224235983995" y="830.0" type="line"/>
    </contour>
    <contour>
      <point x="11.448239161261696" y="-295.0" type="line"/>
      <point x="296.4482391612617" y="-295.0" type="line"/>
      <point x="326.3675995024434" y="-175.0" type="line"/>
      <point x="41.367599502443376" y="-175.0" type="line"/>
    </contour>
    <contour>
      <point x="262.02288201865827" y="710.0" type="line"/>
      <point x="547.0228820186583" y="710.0" type="line"/>
      <point x="576.94224235984" y="830.0" type="line"/>
      <point x="291.94224235983995" y="830.0" type="line"/>
    </contour>
  </outline>
</glyph>
<glyph name="backslash" format="1">
  <advance width="394"/>
  <unicode hex="005C"/>
  <outline>
    <contour>
      <point x="179.51616204709012" y="720.0" type="line"/>
      <point x="239.52015991470458" y="-30.0" type="line"/>
      <point x="386.52015991470455" y="-30.0" type="line"/>
      <point x="326.5161620470901" y="720.0" type="line"/>
    </contour>
  </outline>
</glyph>
<glyph name="bracketright" format="1">
  <advance width="320"/>
  <unicode hex="005D"/>
  <outline>
    <contour>
      <point x="-123.5517608387383" y="-295.0" type="line"/>
      <point x="161.4482391612617" y="-295.0" type="line"/>
      <point x="191.36759950244337" y="-175.0" type="line"/>
      <point x="-93.63240049755663" y="-175.0" type="line"/>
    </contour>
    <contour>
      <point x="127.0228820186583" y="710.0" type="line"/>
      <point x="412.02288201865827" y="710.0" type="line"/>
      <point x="441.94224235983995" y="830.0" type="line"/>
      <point x="156.94224235983998" y="830.0" type="line"/>
    </contour>
    <contour>
      <point x="21.448239161261696" y="-295.0" type="line"/>
      <point x="161.4482391612617" y="-295.0" type="line"/>
      <point x="441.94224235983995" y="830.0" type="line"/>
      <point x="301.94224235983995" y="830.0" type="line"/>
    </contour>
  </outline>
</glyph>
<glyph name="asciicircum" format="1">
  <advance width="660"/>
  <unicode hex="005E"/>
  <outline>
    <contour>
      <point x="153.8333447051088" y="248.0" type="line"/>
      <point x="452.03632196179467" y="690.0" type="line"/>
      <point x="537.0363219617947" y="690.0" type="line"/>
      <point x="510.61024164904484" y="580.0" type="line"/>
      <point x="303.8333447051088" y="248.0" type="line"/>
    </contour>
    <contour>
      <point x="481.03632196179467" y="690.0" type="line"/>
      <point x="574.0363219617947" y="690.0" type="line"/>
      <point x="651.8333447051089" y="248.0" type="line"/>
      <point x="497.8333447051088" y="248.0" type="line"/>
      <point x="454.61024164904484" y="580.0" type="line"/>
    </contour>
  </outline>
</glyph>
<glyph name="underscore" format="1">
  <advance width="456"/>
  <unicode hex="005F"/>
  <outline>
    <contour>
      <point x="-30.168688344024865" y="-121.0" type="line"/>
      <point x="425.8313116559751" y="-121.0" type="line"/>
      <point x="456.0" y="0.0" type="line"/>
      <point x="0.0" y="0.0" type="line"/>
    </contour>
  </outline>
</glyph>
<glyph name="grave" format="1">
  <advance width="600"/>
  <unicode hex="0060"/>
  <outline>
    <contour>
      <point x="292.99600213238557" y="750.0" type="line"/>
      <point x="463.99600213238557" y="750.0" type="line"/>
      <point x="515.5968017059084" y="600.0" type="line"/>
      <point x="394.59680170590843" y="600.0" type="line"/>
    </contour>
    <contour>
      <point x="430.89720149266986" y="525.0" type="move" name="_top"/>
    </contour>
  </outline>
</glyph>
<glyph name="e" format="1">
  <advance width="566"/>
  <unicode hex="0065"/>
  <outline>
    <contour>
      <point x="100.83065671648154" y="252.0" type="curve" smooth="yes"/>
      <point x="61.436832267258985" y="94.0"/>
      <point x="135.00806396588183" y="-12.0"/>
      <point x="316.00806396588183" y="-12.0" type="curve" smooth="yes"/>
      <point x="387.00806396588183" y="-12.0"/>
      <point x="450.74529601990224" y="7.0"/>
      <point x="503.9811840796091" y="28.0" type="curve"/>
      <point x="492.1525604122612" y="145.0" type="line"/>
      <point x="452.6646563610839" y="127.0"/>
      <point x="403.92204832980894" y="116.0"/>
      <point x="364.92204832980894" y="116.0" type="curve" smooth="yes"/>
      <point x="278.92204832980894" y="116.0"/>
      <point x="231.88710447765436" y="168.0"/>
      <point x="255.32393674491334" y="262.0" type="curve" smooth="yes"/>
      <point x="283.2486730633496" y="374.0"/>
      <point x="335.72044918276316" y="416.0"/>
      <point x="397.72044918276316" y="416.0" type="curve" smooth="yes"/>
      <point x="456.72044918276316" y="416.0"/>
      <point x="480.4980010661928" y="375.0"/>
      <point x="454.81721677334514" y="272.0" type="curve"/>
      <point x="496.03966488991557" y="313.0" type="line"/>
      <point x="225.03966488991557" y="313.0" type="line"/>
      <point x="201.3535046198134" y="218.0" type="line"/>
      <point x="580.3535046198134" y="218.0" type="line"/>
      <point x="585.3454406539315" y="230.0"/>
      <point x="593.5813287136384" y="251.0"/>
      <point x="599.3158727790315" y="274.0" type="curve" smooth="yes"/>
      <point x="639.95633724247" y="437.0"/>
      <point x="573.8891375267881" y="537.0"/>
      <point x="430.88913752678803" y="537.0" type="curve" smooth="yes"/>
      <point x="277.88913752678803" y="537.0"/>
      <point x="143.71507320550862" y="424.0"/>
    </contour>
    <contour>
      <point x="427.89720149266986" y="525.0" type="move" name="top"/>
    </contour>
    <contour>
      <point x="297.0" y="0.0" type="move" name="bottom"/>
    </contour>
  </outline>
</glyph>
<glyph name="g" format="1">
  <advance width="610"/>
  <unicode hex="0067"/>
  <outline>
    <contour>
      <point x="107.56251279324742" y="279.0" type="curve" smooth="yes"/>
      <point x="69.16600035539759" y="125.0"/>
      <point x="131.47984008529542" y="30.0"/>
      <point x="247.47984008529542" y="30.0" type="curve"/>
      <point x="309.47984008529545" y="30.0"/>
      <point x="374.2116961620613" y="57.0"/>
      <point x="428.17406432127945" y="113.0" type="curve"/>
      <point x="451.11224058285205" y="205.0" type="line"/>
      <point x="413.131056503243" y="177.0"/>
      <point x="365.14180845775206" y="161.0"/>
      <point x="325.14180845775206" y="161.0" type="curve" smooth="yes"/>
      <point x="267.14180845775206" y="161.0"/>
      <point x="238.86291258000887" y="204.0"/>
      <point x="259.55713681599286" y="287.0" type="curve" smooth="yes"/>
      <point x="280.6024555865928" y="371.4081632653061"/>
      <point x="339.4684331912927" y="419.0"/>
      <point x="403.4684331912927" y="419.0" type="curve" smooth="yes"/>
      <point x="456.4684331912927" y="419.0"/>
      <point x="479.99396908325184" y="381.0"/>
      <point x="459.29974484726785" y="298.0" type="curve"/>
      <point x="512.5463848614837" y="303.0" type="line"/>
      <point x="549.9455852879609" y="453.0"/>
      <point x="496.88913752678803" y="537.0"/>
      <point x="388.88913752678803" y="537.0" type="curve" smooth="yes"/>
      <point x="266.88913752678803" y="537.0"/>
      <point x="149.26878597213638" y="446.27472527472526"/>
    </contour>
    <contour>
      <point x="30.85550355362063" y="-157.0" type="line"/>
      <point x="74.61961549391384" y="-178.0"/>
      <point x="130.8823834398934" y="-197.0"/>
      <point x="208.8823834398934" y="-197.0" type="curve" smooth="yes"/>
      <point x="367.8823834398934" y="-197.0"/>
      <point x="510.81518372421147" y="-97.0"/>
      <point x="553.4502722103954" y="74.0" type="curve" smooth="yes"/>
      <point x="634.7312011372723" y="400.0" type="line"/>
      <point x="641.7123852168813" y="428.0"/>
      <point x="648.4496172709017" y="447.0"/>
      <point x="660.680129353354" y="476.0" type="curve" smooth="yes"/>
      <point x="680.8972014926699" y="525.0" type="line"/>
      <point x="534.8972014926699" y="525.0" type="line"/>
      <point x="493.2110412225677" y="430.0" type="line"/>
      <point x="482.98590511737" y="393.0" type="line"/>
      <point x="402.951616204709" y="72.0" type="line" smooth="yes"/>
      <point x="378.7667999289205" y="-25.0"/>
      <point x="317.04569580666373" y="-68.0"/>
      <point x="230.0456958066637" y="-68.0" type="curve" smooth="yes"/>
      <point x="180.0456958066637" y="-68.0"/>
      <point x="132.78561584931143" y="-53.0"/>
      <point x="97.77217590617504" y="-33.0" type="curve"/>
    </contour>
    <contour>
      <point x="414.40392146423807" y="515.0" type="move" name="top"/>
    </contour>
  </outline>
</glyph>
<glyph name="h" format="1">
  <advance width="634"/>
  <unicode hex="0068"/>
  <outline>
    <contour>
      <point x="75.0" y="0.0" type="line"/>
      <point x="225.0" y="0.0" type="line"/>
      <point x="408.2560820897378" y="735.0" type="line"/>
      <point x="253.26952203287422" y="715.0" type="line"/>
    </contour>
    <contour>
      <point x="296.2674889837405" y="346.0" type="line"/>
      <point x="335.99396908325184" y="381.0"/>
      <point x="384.4818731344291" y="399.0"/>
      <point x="424.4818731344291" y="399.0" type="curve"/>
      <point x="476.4818731344291" y="399.0"/>
      <point x="506.0020330491337" y="369.0"/>
      <point x="489.5463848614838" y="303.0" type="curve" smooth="yes"/>
      <point x="414.0" y="0.0" type="line"/>
      <point x="564.0" y="0.0" type="line"/>
      <point x="645.2809289268769" y="326.0" type="line" smooth="yes"/>
      <point x="680.4361773277653" y="467.0"/>
      <point x="606.8891375267881" y="537.0"/>
      <point x="513.8891375267881" y="537.0" type="curve"/>
      <point x="441.88913752678803" y="537.0"/>
      <point x="375.16534541590397" y="498.0"/>
      <point x="320.20297725668587" y="442.0" type="curve"/>
    </contour>
    <contour>
      <point x="329.5161620470901" y="720.0" type="move" name="top"/>
    </contour>
  </outline>
</glyph>
<glyph name="j" format="1">
  <advance width="300"/>
  <unicode hex="006A"/>
  <outline>
    <contour>
      <point x="-106.12836851461572" y="-181.0" type="line"/>
      <point x="-81.37232054020433" y="-190.0"/>
      <point x="-44.1176165601066" y="-197.0"/>
      <point x="-13.117616560106597" y="-197.0" type="curve"/>
      <point x="101.8823834398934" y="-197.0"/>
      <point x="192.8366876332297" y="-129.0"/>
      <point x="226.99462402274546" y="8.0" type="curve" smooth="yes"/>
      <point x="355.89720149266986" y="525.0" type="line"/>
      <point x="205.89720149266986" y="525.0" type="line"/>
      <point x="78.9892480454909" y="16.0" type="line" smooth="yes"/>
      <point x="63.53091186921369" y="-46.0"/>
      <point x="32.54435181235007" y="-66.0"/>
      <point x="-10.455648187649928" y="-66.0" type="curve"/>
      <point x="-26.455648187649928" y="-66.0"/>
      <point x="-39.707664179120385" y="-63.0"/>
      <point x="-59.2116961620613" y="-57.0" type="curve"/>
    </contour>
    <contour>
      <point x="226.54572992199016" y="676.0" type="curve" smooth="yes"/>
      <point x="214.0793297798311" y="626.0"/>
      <point x="241.8568816632607" y="585.0"/>
      <point x="295.8568816632607" y="585.0" type="curve" smooth="yes"/>
      <point x="349.8568816632607" y="585.0"/>
      <point x="398.07932977983114" y="626.0"/>
      <point x="410.5457299219902" y="676.0" type="curve" smooth="yes"/>
      <point x="423.01213006414923" y="726.0"/>
      <point x="395.2345781807196" y="767.0"/>
      <point x="341.2345781807196" y="767.0" type="curve" smooth="yes"/>
      <point x="287.2345781807196" y="767.0"/>
      <point x="239.0121300641492" y="726.0"/>
    </contour>
  </outline>
</glyph>
<glyph name="l" format="1">
  <advance width="300"/>
  <unicode hex="006C"/>
  <outline>
    <contour>
      <point x="75.0" y="0.0" type="line"/>
      <point x="225.0" y="0.0" type="line"/>
      <point x="408.2560820897378" y="735.0" type="line"/>
      <point x="253.26952203287422" y="715.0" type="line"/>
    </contour>
    <contour>
      <point x="329.5161620470901" y="720.0" type="move" name="top"/>
    </contour>
  </outline>
</glyph>
<glyph name="o" format="1">
  <advance width="592"/>
  <unicode hex="006F"/>
  <outline>
    <contour>
      <point x="103.32393674491334" y="262.0" type="curve" smooth="yes"/>
      <point x="61.18750426441581" y="93.0"/>
      <point x="142.00806396588183" y="-12.0"/>
      <point x="293.00806396588183" y="-12.0" type="curve" smooth="yes"/>
      <point x="444.00806396588183" y="-12.0"/>
      <point x="577.1875042644158" y="93.0"/>
      <point x="619.3239367449133" y="262.0" type="curve" smooth="yes"/>
      <point x="661.4603692254109" y="431.0"/>
      <point x="580.8891375267881" y="537.0"/>
      <point x="429.88913752678803" y="537.0" type="curve" smooth="yes"/>
      <point x="278.88913752678803" y="537.0"/>
      <point x="145.4603692254109" y="431.0"/>
    </contour>
    <contour>
      <point x="255.32393674491334" y="262.0" type="curve" smooth="yes"/>
      <point x="281.7527050462905" y="368.0"/>
      <point x="335.72044918276316" y="416.0"/>
      <point x="399.72044918276316" y="416.0" type="curve" smooth="yes"/>
      <point x="463.72044918276316" y="416.0"/>
      <point x="493.7527050462905" y="368.0"/>
      <point x="467.32393674491334" y="262.0" type="curve" smooth="yes"/>
      <point x="440.8951684435362" y="156.0"/>
      <point x="387.1767523099067" y="109.0"/>
      <point x="323.1767523099067" y="109.0" type="curve" smooth="yes"/>
      <point x="259.1767523099067" y="109.0"/>
      <point x="228.8951684435362" y="156.0"/>
    </contour>
    <contour>
      <point x="426.89720149266986" y="525.0" type="move" name="top"/>
    </contour>
    <contour>
      <point x="296.0" y="0.0" type="move" name="bottom"/>
    </contour>
  </outline>
</glyph>
<glyph name="q" format="1">
  <advance width="610"/>
  <unicode hex="0071"/>
  <outline>
    <contour>
      <point x="103.82259275059971" y="264.0" type="curve" smooth="yes"/>
      <point x="61.686160270102164" y="95.0"/>
      <point x="126.00806396588183" y="-12.0"/>
      <point x="232.00806396588183" y="-12.0" type="curve" smooth="yes"/>
      <point x="302.00806396588183" y="-12.0"/>
      <point x="366.7318560767659" y="27.0"/>
      <point x="420.694224235984" y="83.0" type="curve"/>
      <point x="444.62971250892934" y="179.0" type="line"/>
      <point x="405.1525604122612" y="145.0"/>
      <point x="355.91667235255443" y="124.0"/>
      <point x="315.91667235255443" y="124.0" type="curve" smooth="yes"/>
      <point x="257.91667235255443" y="124.0"/>
      <point x="230.88441648902707" y="172.0"/>
      <point x="255.81721677334514" y="272.0" type="curve" smooth="yes"/>
      <point x="279.2540490406042" y="366.0"/>
      <point x="339.4684331912927" y="419.0"/>
      <point x="403.4684331912927" y="419.0" type="curve" smooth="yes"/>
      <point x="456.4684331912927" y="419.0"/>
      <point x="479.99396908325184" y="381.0"/>
      <point x="459.29974484726785" y="298.0" type="curve"/>
      <point x="512.5463848614837" y="303.0" type="line"/>
      <point x="549.9455852879609" y="453.0"/>
      <point x="496.88913752678803" y="537.0"/>
      <point x="392.88913752678803" y="537.0" type="curve" smooth="yes"/>
      <point x="266.88913752678803" y="537.0"/>
      <point x="147.95364925384268" y="441.0"/>
    </contour>
    <contour>
      <point x="335.1343994313639" y="-200.0" type="line"/>
      <point x="490.12095948822747" y="-180.0" type="line"/>
      <point x="634.7312011372723" y="400.0" type="line"/>
      <point x="641.7123852168813" y="428.0"/>
      <point x="648.4496172709017" y="447.0"/>
      <point x="660.680129353354" y="476.0" type="curve" smooth="yes"/>
      <point x="680.8972014926699" y="525.0" type="line"/>
      <point x="534.8972014926699" y="525.0" type="line"/>
      <point x="493.2110412225677" y="430.0" type="line"/>
      <point x="482.98590511737" y="393.0" type="line"/>
    </contour>
  </outline>
</glyph>
<glyph name="s" format="1">
  <advance width="485"/>
  <unicode hex="0073"/>
  <outline>
    <contour>
      <point x="33.72648009951132" y="35.0" type="line"/>
      <point x="77.99462402274544" y="8.0"/>
      <point x="142.00806396588183" y="-12.0"/>
      <point x="219.00806396588183" y="-12.0" type="curve"/>
      <point x="358.00806396588183" y="-12.0"/>
      <point x="466.7130401563749" y="55.0"/>
      <point x="491.14718443500664" y="153.0" type="curve" smooth="yes"/>
      <point x="511.84140867099063" y="236.0"/>
      <point x="473.8037768302088" y="292.0"/>
      <point x="350.02622494677917" y="333.0" type="curve" smooth="yes"/>
      <point x="293.7634570007996" y="352.0"/>
      <point x="285.004721037761" y="365.0"/>
      <point x="289.7419530917814" y="384.0" type="curve"/>
      <point x="294.4791851458018" y="403.0"/>
      <point x="314.47112117992" y="415.0"/>
      <point x="354.47112117992" y="415.0" type="curve"/>
      <point x="393.47112117992" y="415.0"/>
      <point x="446.98321712874275" y="397.0"/>
      <point x="481.4980010661928" y="375.0" type="curve"/>
      <point x="562.4173614073744" y="495.0" type="line"/>
      <point x="518.4012334756108" y="519.0"/>
      <point x="458.88913752678803" y="537.0"/>
      <point x="393.88913752678803" y="537.0" type="curve"/>
      <point x="256.88913752678803" y="537.0"/>
      <point x="160.68819331923584" y="464.0"/>
      <point x="137.75001705766323" y="372.0" type="curve"/>
      <point x="117.80377683020876" y="292.0"/>
      <point x="151.0934246624611" y="233.0"/>
      <point x="261.1176165601066" y="197.0" type="curve" smooth="yes"/>
      <point x="321.131056503243" y="177.0"/>
      <point x="335.14180845775206" y="161.0"/>
      <point x="330.65390440657484" y="143.0" type="curve"/>
      <point x="326.4153283582408" y="126.0"/>
      <point x="306.92473631843626" y="112.0"/>
      <point x="263.92473631843626" y="112.0" type="curve"/>
      <point x="212.92473631843623" y="112.0"/>
      <point x="153.16062437814304" y="133.0"/>
      <point x="118.64315245206573" y="159.0" type="curve"/>
    </contour>
    <contour>
      <point x="390.89720149266986" y="525.0" type="move" name="top"/>
    </contour>
    <contour>
      <point x="222.0" y="0.0" type="move" name="bottom"/>
    </contour>
  </outline>
</glyph>
<glyph name="u" format="1">
  <advance width="628"/>
  <unicode hex="0075"/>
  <outline>
    <contour>
      <point x="119.61627256579297" y="199.0" type="line" smooth="yes"/>
      <point x="84.46102416490449" y="58.0"/>
      <point x="155.00806396588183" y="-12.0"/>
      <point x="248.00806396588183" y="-12.0" type="curve" smooth="yes"/>
      <point x="320.00806396588183" y="-12.0"/>
      <point x="383.7318560767659" y="27.0"/>
      <point x="438.694224235984" y="83.0" type="curve"/>
      <point x="463.3776965174589" y="182.0" type="line"/>
      <point x="423.1525604122612" y="145.0"/>
      <point x="377.4153283582408" y="126.0"/>
      <point x="337.4153283582408" y="126.0" type="curve" smooth="yes"/>
      <point x="285.4153283582408" y="126.0"/>
      <point x="258.8951684435362" y="156.0"/>
      <point x="275.35081663118615" y="222.0" type="curve" smooth="yes"/>
      <point x="350.89720149266986" y="525.0" type="line"/>
      <point x="200.89720149266986" y="525.0" type="line"/>
    </contour>
    <contour>
      <point x="422.0" y="0.0" type="line"/>
      <point x="568.0" y="0.0" type="line"/>
      <point x="572.2170721393159" y="49.0" type="line" smooth="yes"/>
      <point x="574.4475842217681" y="78.0"/>
      <point x="577.1848162757885" y="97.0"/>
      <point x="584.1660003553976" y="125.0" type="curve" smooth="yes"/>
      <point x="683.8972014926699" y="525.0" type="line"/>
      <point x="533.8972014926699" y="525.0" type="line"/>
      <point x="435.91129637529986" y="132.0" type="line"/>
      <point x="427.68616027010216" y="95.0" type="line"/>
    </contour>
    <contour>
      <point x="442.89720149266986" y="525.0" type="move" name="top"/>
    </contour>
    <contour>
      <point x="312.0" y="0.0" type="move" name="bottom"/>
    </contour>
  </outline>
</glyph>
<glyph name="x" format="1">
  <advance width="534.0"/>
  <unicode hex="0078"/>
  <outline>
    <contour>
      <point x="5.0" y="0.0" type="line"/>
      <point x="169.0" y="0.0" type="line"/>
      <point x="321.8763525231453" y="184.0" type="line"/>
      <point x="398.5786407250111" y="255.0" type="line"/>
      <point x="649.8972014926699" y="525.0" type="line"/>
      <point x="485.89720149266986" y="525.0" type="line"/>
      <point x="350.00740902638825" y="361.0" type="line"/>
      <point x="270.55713681599286" y="287.0" type="line"/>
    </contour>
    <contour>
      <point x="145.89720149266986" y="525.0" type="line"/>
      <point x="279.6082085999111" y="211.0" type="line"/>
      <point x="355.0" y="0.0" type="line"/>
      <point x="529.0" y="0.0" type="line"/>
      <point x="390.2809289268769" y="326.0" type="line"/>
      <point x="319.89720149266986" y="525.0" type="line"/>
    </contour>
  </outline>
</glyph>
<glyph name="y" format="1">
  <advance width="530"/>
  <unicode hex="0079"/>
  <outline>
    <contour>
      <point x="130.89720149266986" y="525.0" type="line"/>
      <point x="204.0" y="0.0" type="line"/>
      <point x="297.0" y="0.0" type="line"/>
      <point x="323.4260803127499" y="110.0" type="line"/>
      <point x="294.89720149266986" y="525.0" type="line"/>
    </contour>
    <contour>
      <point x="-26.12836851461571" y="-181.0" type="line"/>
      <point x="-3.372320540204335" y="-190.0"/>
      <point x="28.882383439893403" y="-197.0"/>
      <point x="56.8823834398934" y="-197.0" type="curve"/>
      <point x="174.8823834398934" y="-197.0"/>
      <point x="244.08601563607286" y="-128.0"/>
      <point x="326.0" y="0.0" type="curve" smooth="yes"/>
      <point x="660.8972014926699" y="525.0" type="line"/>
      <point x="500.89720149266986" y="525.0" type="line"/>
      <point x="267.4260803127499" y="110.0" type="line"/>
      <point x="215.7184161336295" y="47.0" type="line"/>
      <point x="152.78561584931143" y="-53.0"/>
      <point x="118.79636780382053" y="-69.0"/>
      <point x="70.79636780382053" y="-69.0" type="curve"/>
      <point x="52.79636780382053" y="-69.0"/>
      <point x="36.54435181235007" y="-66.0"/>
      <point x="20.040319829409157" y="-60.0" type="curve"/>
    </contour>
    <contour>
      <point x="398.89720149266986" y="525.0" type="move" name="top"/>
    </contour>
  </outline>
</glyph>
<glyph name="braceleft" format="1">
  <advance width="363"/>
  <unicode hex="007B"/>
  <outline>
    <contour>
      <point x="115.10148862834293" y="221.0" type="line"/>
      <point x="211.86291258000887" y="204.0"/>
      <point x="225.8817285003998" y="176.0"/>
      <point x="214.91129637529986" y="132.0" type="curve"/>
      <point x="196.2116961620613" y="57.0"/>
      <point x="104.99462402274544" y="8.0"/>
      <point x="82.80443176970236" y="-81.0" type="curve" smooth="yes"/>
      <point x="59.1182714996002" y="-176.0"/>
      <point x="111.42135927498892" y="-255.0"/>
      <point x="252.68681520959575" y="-278.0" type="curve"/>
      <point x="299.38103944557975" y="-195.0" type="line"/>
      <point x="222.611551528032" y="-166.0"/>
      <point x="211.33534363891604" y="-127.0"/>
      <point x="222.5551037668592" y="-82.0" type="curve" smooth="yes"/>
      <point x="241.00537597725454" y="-8.0"/>
      <point x="317.2197601279431" y="45.0"/>
      <point x="340.1579363895157" y="137.0" type="curve"/>
      <point x="356.1149285714793" y="201.0"/>
      <point x="323.83065671648154" y="252.0"/>
      <point x="247.81990476197242" y="268.0" type="curve"/>
      <point x="331.8091528074633" y="284.0"/>
      <point x="389.7742089553087" y="336.0"/>
      <point x="405.73120113727225" y="400.0" type="curve"/>
      <point x="428.6693773988449" y="492.0"/>
      <point x="378.3851055438471" y="543.0"/>
      <point x="396.8353777542425" y="617.0" type="curve" smooth="yes"/>
      <point x="408.0551378821856" y="662.0"/>
      <point x="438.7789299930697" y="701.0"/>
      <point x="530.009442075522" y="730.0" type="curve"/>
      <point x="524.7036663115059" y="813.0" type="line"/>
      <point x="371.96912224611276" y="790.0"/>
      <point x="280.27221002150145" y="711.0"/>
      <point x="256.5860497513993" y="616.0" type="curve" smooth="yes"/>
      <point x="234.39585749835624" y="527.0"/>
      <point x="301.42811336188356" y="479.0"/>
      <point x="282.728513148645" y="404.0" type="curve"/>
      <point x="271.75808102354506" y="360.0"/>
      <point x="243.77689694393598" y="332.0"/>
      <point x="138.53832089560194" y="315.0" type="curve"/>
    </contour>
  </outline>
</glyph>
<glyph name="braceright" format="1">
  <advance width="363"/>
  <unicode hex="007D"/>
  <outline>
    <contour>
      <point x="-33.61896055442024" y="-195.0" type="curve"/>
      <point x="-28.313184790404236" y="-278.0" type="line"/>
      <point x="124.42135927498892" y="-255.0"/>
      <point x="216.1182714996002" y="-176.0"/>
      <point x="239.80443176970238" y="-81.0" type="curve" smooth="yes"/>
      <point x="261.9946240227454" y="8.0"/>
      <point x="195.2116961620613" y="57.0"/>
      <point x="213.91129637529986" y="132.0" type="curve"/>
      <point x="224.8817285003998" y="176.0"/>
      <point x="252.86291258000887" y="204.0"/>
      <point x="358.10148862834296" y="221.0" type="curve"/>
      <point x="381.53832089560194" y="315.0" type="line"/>
      <point x="284.776896943936" y="332.0"/>
      <point x="270.75808102354506" y="360.0"/>
      <point x="281.728513148645" y="404.0" type="curve"/>
      <point x="300.42811336188356" y="479.0"/>
      <point x="391.39585749835624" y="527.0"/>
      <point x="413.5860497513993" y="616.0" type="curve" smooth="yes"/>
      <point x="437.27221002150145" y="711.0"/>
      <point x="384.96912224611276" y="790.0"/>
      <point x="243.7036663115059" y="813.0" type="curve"/>
      <point x="197.00944207552192" y="730.0" type="line"/>
      <point x="273.7789299930697" y="701.0"/>
      <point x="285.0551378821856" y="662.0"/>
      <point x="273.8353777542425" y="617.0" type="curve" smooth="yes"/>
      <point x="255.38510554384712" y="543.0"/>
      <point x="179.66937739884492" y="492.0"/>
      <point x="156.73120113727228" y="400.0" type="curve"/>
      <point x="140.77420895530872" y="336.0"/>
      <point x="172.8091528074633" y="284.0"/>
      <point x="248.81990476197242" y="268.0" type="curve"/>
      <point x="164.83065671648154" y="252.0"/>
      <point x="107.11492857147933" y="201.0"/>
      <point x="91.15793638951575" y="137.0" type="curve"/>
      <point x="68.21976012794313" y="45.0"/>
      <point x="118.00537597725456" y="-8.0"/>
      <point x="99.55510376685919" y="-82.0" type="curve" smooth="yes"/>
      <point x="88.33534363891604" y="-127.0"/>
      <point x="57.611551528032" y="-166.0"/>
    </contour>
  </outline>
</glyph>
<glyph name="asciitilde" format="1">
  <advance width="660"/>
  <unicode hex="007E"/>
  <outline>
    <contour>
      <point x="178.30512082452242" y="290.0" type="curve"/>
      <point x="248.30512082452242" y="290.0" type="line"/>
      <point x="274.2674889837405" y="346.0"/>
      <point x="298.7553930349178" y="364.0"/>
      <point x="323.7553930349178" y="364.0" type="curve"/>
      <point x="376.7553930349178" y="364.0"/>
      <point x="403.0584808103065" y="285.0"/>
      <point x="488.0584808103065" y="285.0" type="curve" smooth="yes"/>
      <point x="564.0584808103065" y="285.0"/>
      <point x="633.2701769723678" y="342.0"/>
      <point x="671.1841613362949" y="470.0" type="curve"/>
      <point x="601.1841613362949" y="470.0" type="line"/>
      <point x="576.2217931770768" y="414.0"/>
      <point x="550.7338891258996" y="396.0"/>
      <point x="525.7338891258996" y="396.0" type="curve"/>
      <point x="471.73388912589957" y="396.0"/>
      <point x="445.4308013505108" y="475.0"/>
      <point x="361.4308013505108" y="475.0" type="curve" smooth="yes"/>
      <point x="285.4308013505108" y="475.0"/>
      <point x="215.21910518844953" y="418.0"/>
    </contour>
  </outline>
</glyph>
